<?xml version="1.0" standalone="no"?>
<!DOCTYPE svg PUBLIC "-//W3C//DTD SVG 20010904//EN"
 "http://www.w3.org/TR/2001/REC-SVG-20010904/DTD/svg10.dtd">
<svg version="1.0" xmlns="http://www.w3.org/2000/svg"
 width="400.000000pt" height="400.000000pt" viewBox="0 0 400.000000 400.000000"
 preserveAspectRatio="xMidYMid meet">
<metadata>
Created by potrace 1.11, written by Peter Selinger 2001-2013
</metadata>
<g transform="translate(0.000000,400.000000) scale(0.100000,-0.100000)"
fill="#000000" stroke="none">
<path d="M1870 3765 c-19 -7 -47 -14 -62 -14 -15 -1 -33 -8 -42 -16 -8 -9 -34
-24 -56 -34 -23 -10 -41 -21 -41 -25 2 -18 -1 -23 -29 -39 -17 -10 -34 -16
-39 -13 -15 10 -71 -15 -82 -36 l-11 -20 39 19 c54 28 102 43 119 36 8 -3 24
4 35 16 11 11 25 21 30 21 6 0 1 -9 -12 -20 -27 -22 -22 -25 16 -10 14 5 24
14 21 19 -3 5 6 12 21 16 21 5 24 8 13 15 -11 7 -9 11 12 19 14 5 29 14 32 20
3 5 25 12 49 16 48 8 84 24 55 25 -10 0 -18 5 -18 10 0 12 -6 12 -50 -5z"/>
<path d="M2015 3731 c16 -7 9 -10 -30 -16 -27 -3 -61 -10 -75 -15 l-25 -8 28
-1 c15 -1 42 -7 60 -14 18 -8 50 -12 72 -10 30 3 36 2 25 -6 -8 -6 -38 -11
-67 -11 -28 0 -55 -5 -59 -12 -5 -8 5 -9 34 -5 29 3 40 2 35 -6 -4 -7 0 -8 11
-4 9 4 15 3 12 -1 -3 -5 -24 -7 -48 -6 -93 6 -94 6 -75 11 10 3 16 10 14 16
-4 13 -85 17 -102 6 -48 -32 -190 -99 -208 -99 -13 0 -28 -5 -35 -12 -8 -8
-15 -8 -28 3 -10 8 -15 9 -11 2 5 -7 -11 -15 -46 -24 -46 -11 -49 -14 -27 -20
17 -5 19 -7 7 -8 -37 -2 -76 -32 -113 -88 -35 -53 -38 -62 -39 -134 -1 -43 -6
-84 -13 -91 -14 -18 -32 -98 -22 -98 5 0 4 -15 -1 -32 -20 -71 -4 -258 22
-243 5 4 9 0 9 -9 0 -8 5 -16 10 -18 6 -2 12 -21 13 -43 3 -35 7 -40 34 -46
45 -9 56 -18 42 -35 -13 -16 11 -28 81 -38 36 -5 53 -1 85 17 47 27 65 57 65
114 0 46 11 55 52 41 46 -16 61 -90 33 -168 -14 -41 -13 -80 4 -80 4 0 15 -18
25 -41 11 -25 23 -38 31 -35 14 5 38 -18 48 -46 5 -14 1 -18 -18 -18 -14 0
-34 5 -45 12 -15 10 -29 10 -65 0 -25 -7 -58 -12 -75 -12 -16 0 -32 -5 -35
-11 -4 -5 -17 -9 -28 -8 -38 3 -41 -1 -20 -23 28 -30 30 -48 13 -75 -11 -16
-25 -23 -48 -23 -43 0 -50 21 -21 67 25 42 43 127 25 115 -6 -3 -16 -7 -22 -8
-11 -2 -92 -56 -148 -100 -30 -23 -62 -99 -45 -109 4 -3 6 -12 2 -20 -3 -8 0
-15 6 -15 6 0 8 -7 4 -15 -3 -10 -1 -15 8 -13 15 3 28 -59 24 -112 -1 -19 -3
-42 -4 -50 -1 -8 -12 9 -26 38 -15 33 -33 56 -49 61 -13 6 -27 15 -31 20 -10
18 -39 13 -53 -9 -9 -14 -23 -20 -50 -20 -33 0 -42 5 -73 48 -20 26 -39 58
-42 72 -13 48 -22 54 -50 36 -25 -17 -40 -46 -53 -100 -9 -37 -46 -95 -61 -96
-6 0 -14 14 -18 30 -4 17 -11 30 -17 30 -5 0 -16 6 -23 13 -8 6 -21 18 -30 25
-8 7 -15 21 -15 32 0 10 -5 31 -12 47 l-11 28 -8 -45 c-5 -25 -16 -49 -25 -55
-24 -14 -46 -35 -70 -70 -19 -25 -24 -27 -38 -16 -9 8 -16 28 -16 45 1 45 -21
137 -31 130 -5 -3 -9 -16 -9 -28 0 -48 -50 -61 -175 -46 -50 6 -130 15 -178
20 -59 6 -93 14 -100 24 -7 8 -29 18 -49 21 l-38 7 0 -176 0 -176 25 6 c28 7
46 -19 27 -38 -6 -6 -8 -18 -5 -27 3 -9 6 -21 8 -28 3 -8 15 -9 39 -3 31 7 36
5 36 -10 0 -27 -17 -34 -77 -31 l-53 2 0 -881 0 -881 213 2 c116 2 215 7 218
12 3 4 59 12 125 17 65 6 131 12 145 15 26 6 59 -14 59 -36 0 -5 630 -9 1620
-9 l1620 0 0 1149 c0 760 -3 1152 -10 1156 -6 3 -25 1 -43 -6 -46 -16 -91 -1
-95 32 -6 46 -15 55 -21 19 -5 -32 -9 -35 -41 -37 -32 -1 -215 -22 -229 -25
-3 -1 -23 1 -43 5 -22 5 -46 4 -57 -3 -16 -8 -22 -6 -30 7 -9 17 -11 17 -39 1
-39 -23 -52 -23 -52 3 0 18 -4 20 -27 15 -96 -22 -272 -35 -390 -30 -57 3 -94
1 -98 -6 -3 -5 -16 -10 -29 -10 -30 0 -46 -18 -46 -51 0 -51 8 -59 62 -59 27
0 57 4 66 9 27 14 105 20 126 9 11 -6 21 -6 25 -1 5 9 56 9 106 1 14 -2 20 3
20 17 0 23 52 35 136 30 71 -4 67 -2 78 -24 8 -14 7 -20 -5 -25 -8 -3 -13 -2
-10 2 3 5 -12 9 -32 9 -20 1 -40 -4 -44 -10 -3 -6 -17 -12 -30 -14 -36 -5 -79
-24 -130 -58 -39 -26 -45 -33 -36 -49 7 -12 7 -21 0 -28 -18 -18 -34 2 -27 32
8 37 -23 57 -63 42 -48 -18 -87 -21 -111 -8 -16 9 -35 11 -60 5 -28 -6 -39 -5
-47 7 -15 19 -21 6 -30 -76 -4 -33 -11 -63 -16 -66 -6 -4 -8 2 -4 14 4 11 2
23 -4 27 -5 3 -10 21 -10 39 0 43 -7 48 -36 29 -13 -8 -30 -13 -36 -10 -7 2
-17 5 -23 6 -18 4 -25 28 -18 61 6 32 7 32 54 28 45 -5 49 -3 49 16 0 12 3 31
6 42 7 25 -40 76 -62 67 -9 -3 -14 2 -14 17 0 19 -4 21 -35 17 -25 -4 -35 -1
-35 9 0 8 7 14 15 14 21 0 31 30 14 41 -8 4 -23 6 -35 3 -14 -4 -23 0 -27 10
-5 12 0 16 18 16 13 0 27 5 30 10 3 6 21 10 39 10 17 0 37 5 44 12 9 9 12 9
12 1 0 -7 -12 -18 -27 -25 -14 -7 -28 -18 -30 -24 -7 -20 29 -25 56 -7 24 15
25 15 12 0 -8 -10 -12 -20 -9 -23 12 -12 59 70 68 118 15 83 8 209 -14 242
-15 24 -23 28 -52 23 -19 -3 -34 -2 -34 2 0 14 23 29 50 33 l25 3 -25 23 c-13
12 -19 22 -12 22 20 0 34 38 22 59 -6 12 -6 22 -1 25 11 7 23 -37 15 -57 -3
-8 1 -17 9 -20 16 -6 27 48 27 131 0 50 -27 170 -42 189 -5 7 -6 18 -2 24 4 8
3 9 -4 5 -15 -9 -15 -46 -2 -80 5 -14 6 -26 1 -26 -4 0 -7 -17 -6 -37 2 -46
-2 -56 -19 -41 -6 6 -10 24 -8 40 2 15 -3 43 -12 62 -9 19 -16 39 -16 44 0 6
-5 14 -10 17 -7 4 -9 -2 -5 -18 4 -15 2 -28 -5 -32 -9 -6 -11 5 -9 39 3 29 0
47 -8 50 -7 3 -10 -1 -7 -8 3 -7 -2 -13 -11 -13 -12 0 -15 6 -11 21 3 12 6 30
7 41 1 17 2 16 9 -5 5 -17 8 -19 9 -7 2 28 21 19 28 -13 5 -30 23 -52 23 -30
0 6 5 8 10 5 6 -3 10 1 10 10 0 10 5 13 13 9 8 -5 7 -2 -2 10 -11 13 -16 14
-22 4 -13 -19 -11 -3 3 27 6 14 16 25 21 25 5 0 4 7 -3 15 -6 8 -9 23 -5 36 6
17 0 28 -25 49 -20 17 -28 30 -21 34 16 10 14 26 -4 26 -8 0 -15 4 -15 8 0 18
-82 97 -117 113 -23 11 -31 18 -22 22 11 4 10 9 -6 21 -11 8 -24 19 -30 24
-18 15 -103 34 -116 27 -8 -6 -10 -4 -4 5 6 10 4 12 -9 7 -25 -10 -45 4 -20
14 15 7 13 8 -10 6 -16 -1 -31 3 -33 9 -2 7 6 10 24 6 15 -2 25 -2 22 2 -6 6
-237 36 -274 35 l-20 0 20 -8z m116 -85 c-11 -13 -4 -14 43 -9 31 3 56 2 56
-3 0 -5 -25 -10 -56 -11 -31 -1 -61 -6 -67 -12 -8 -8 -6 -11 8 -11 10 0 16 -3
12 -6 -3 -4 -13 -4 -21 -1 -14 5 -13 10 2 37 9 16 21 30 26 30 5 0 3 -6 -3
-14z m179 -21 c0 -8 -2 -15 -4 -15 -2 0 -6 7 -10 15 -3 8 -1 15 4 15 6 0 10
-7 10 -15z m60 9 c0 -8 -19 -13 -24 -6 -3 5 1 9 9 9 8 0 15 -2 15 -3z m-288
-56 c-5 -5 -22 -6 -38 -2 l-29 8 25 6 c31 8 55 1 42 -12z m-373 -35 c-15 -17
-78 -47 -85 -40 -4 3 80 53 95 56 2 1 -3 -6 -10 -16z m508 -9 c-3 -3 -12 -4
-19 -1 -8 3 -5 6 6 6 11 1 17 -2 13 -5z m183 -59 c-7 -8 -16 -12 -22 -9 -5 3
-15 0 -23 -6 -8 -7 -15 -10 -15 -6 0 4 -11 -1 -24 -9 -14 -9 -27 -12 -30 -7
-3 5 2 12 12 15 9 3 35 13 57 21 51 19 60 20 45 1z m-383 -1 c-3 -3 -12 -4
-19 -1 -8 3 -5 6 6 6 11 1 17 -2 13 -5z m264 -10 c-18 -13 -27 -14 -44 -5 -21
11 -20 11 5 6 15 -3 30 -1 33 5 3 5 11 10 18 10 6 0 1 -7 -12 -16z m194 -84
c-3 -5 -11 -10 -16 -10 -6 0 -7 5 -4 10 3 6 11 10 16 10 6 0 7 -4 4 -10z
m-972 -26 c15 -3 25 -10 21 -15 -8 -13 62 -41 109 -43 21 -1 42 -8 47 -16 5
-8 31 -14 74 -15 36 -1 69 -4 72 -8 17 -17 54 -5 117 37 30 20 72 18 225 -11
74 -14 85 -19 93 -42 6 -14 20 -34 31 -45 17 -16 20 -28 16 -74 -3 -31 -10
-58 -16 -60 -7 -2 -12 -10 -12 -19 0 -8 -7 -30 -16 -48 -14 -31 -14 -37 0 -67
9 -18 17 -42 19 -53 3 -25 54 -109 83 -139 26 -26 44 -78 34 -97 -4 -8 -11
-66 -14 -129 -8 -132 -12 -150 -32 -150 -8 0 -14 -9 -14 -20 0 -11 -4 -20 -10
-20 -5 0 -10 5 -10 10 0 6 -9 10 -20 10 -11 0 -20 6 -20 14 0 8 -8 15 -17 16
-10 0 -51 2 -90 4 -40 2 -75 0 -79 -5 -9 -15 -62 -10 -80 8 -9 9 -24 17 -34
18 -10 1 -32 12 -48 26 -17 13 -41 32 -54 42 -20 15 -23 27 -23 78 l0 60 40
-8 c22 -4 76 -7 119 -6 67 2 95 8 168 39 48 20 88 39 89 43 0 3 2 17 5 30 2
13 -3 35 -11 48 -9 12 -13 23 -9 23 4 0 1 7 -6 15 -7 8 -9 15 -6 15 4 0 -7 14
-24 30 -17 17 -36 30 -43 30 -7 0 -28 11 -47 25 -19 14 -42 23 -51 20 -9 -3
-52 5 -95 19 -91 27 -141 27 -216 -2 -79 -31 -90 -34 -128 -37 -22 -2 -42 4
-54 14 -28 25 -217 22 -246 -4 -28 -25 -37 -12 -21 31 7 20 13 64 12 98 -1 81
55 327 73 320 8 -3 16 2 19 10 6 15 13 15 80 0z m941 -19 c-4 -8 -1 -15 5 -15
6 0 11 -10 11 -22 l1 -23 13 24 c20 35 28 10 15 -48 -6 -30 -16 -51 -24 -51
-19 0 -24 22 -8 38 17 18 8 32 -16 25 -14 -3 -19 0 -17 11 1 8 5 19 9 22 15
15 6 26 -10 13 -15 -12 -16 -12 -8 1 20 36 39 53 29 25z m100 -62 c-25 -24
-27 -28 -11 -31 18 -4 18 -5 1 -23 -24 -26 -34 -24 -34 9 0 23 19 71 20 49 0
-5 10 -1 22 7 34 24 34 19 2 -11z m53 -205 c-3 -8 -6 -5 -6 6 -1 11 2 17 5 13
3 -3 4 -12 1 -19z m101 -455 c20 -52 24 -73 13 -73 -6 0 -11 5 -11 11 0 6 -11
25 -25 44 -19 24 -22 34 -13 38 23 9 25 8 36 -20z m-58 -9 c0 -2 -7 -4 -15 -4
-8 0 -15 4 -15 10 0 5 7 7 15 4 8 -4 15 -8 15 -10z m-85 -85 c8 -35 -10 -64
-21 -36 -3 9 -10 14 -15 11 -5 -3 -7 2 -4 10 3 9 7 23 10 31 7 25 23 17 30
-16z m0 -364 c4 -63 4 -132 0 -153 -4 -27 0 -57 14 -101 l21 -61 -27 -42 c-20
-29 -29 -37 -31 -25 -3 17 -22 24 -22 9 0 -17 -43 -53 -57 -48 -8 3 -12 2 -9
-3 3 -5 -1 -14 -9 -21 -12 -10 -15 -9 -16 6 -1 19 -1 22 8 59 2 11 6 40 9 64
3 24 8 49 11 55 4 6 -1 4 -11 -4 -17 -14 -18 -12 -13 30 11 84 19 115 42 145
26 36 41 81 50 153 4 32 12 52 20 52 9 0 15 -32 20 -115z m-920 67 c19 -11 19
-11 -5 -12 -14 0 -49 -3 -77 -6 -49 -6 -53 -5 -53 14 0 14 8 22 23 24 29 5 88
-6 112 -20z m760 12 c15 5 16 4 6 -8 -10 -12 -9 -14 8 -9 17 4 20 -2 26 -62 6
-48 4 -74 -6 -93 l-13 -27 -4 33 c-2 17 -9 32 -16 32 -7 0 -22 11 -34 25 -22
25 -20 53 5 68 10 6 10 13 3 27 -12 23 -13 40 -1 21 5 -8 16 -11 26 -7z m-884
-118 c15 -13 25 -28 21 -32 -4 -5 1 -2 11 5 15 12 20 11 35 -1 9 -9 31 -18 47
-22 88 -20 99 -24 80 -26 -11 -1 -41 -1 -67 0 -44 1 -48 0 -48 -22 0 -13 -4
-28 -9 -33 -17 -18 18 -80 58 -106 21 -13 36 -30 34 -36 -4 -10 4 -11 28 -6
31 6 33 5 20 -11 -8 -9 -20 -15 -27 -12 -7 3 -18 -2 -25 -10 -7 -8 -18 -13
-26 -10 -7 3 -14 0 -14 -7 -1 -7 -2 -19 -3 -27 -1 -11 -11 -14 -45 -12 -27 3
-41 0 -37 -6 3 -5 -1 -12 -9 -16 -10 -4 -15 1 -16 17 0 20 -1 20 -8 3 -7 -19
-8 -19 -15 0 -5 10 -10 36 -11 57 -1 20 -6 41 -10 45 -4 4 -6 -3 -3 -15 3 -12
2 -23 -4 -25 -6 -2 -5 -15 2 -32 17 -46 8 -55 -55 -53 -38 1 -58 -2 -64 -12
-5 -8 -16 -11 -29 -7 -14 5 -24 1 -30 -10 -7 -12 -15 -15 -28 -9 -11 4 -34 8
-53 10 -22 1 -41 11 -53 25 -21 26 -16 40 18 40 13 0 24 4 24 10 0 5 -19 9
-42 7 -36 -2 -45 -7 -56 -29 -9 -19 -21 -28 -37 -28 -13 0 -26 -4 -29 -9 -10
-15 -89 -20 -128 -8 -35 11 -58 39 -58 71 0 47 106 80 219 70 46 -5 70 -3 75
5 9 14 65 14 136 -1 49 -10 60 -9 95 7 24 12 40 15 42 8 2 -5 11 -19 19 -29
14 -18 15 -18 9 4 -4 13 -1 29 5 37 7 8 10 21 7 29 -4 10 -1 13 7 10 9 -4 14
3 14 20 0 14 -4 26 -8 26 -5 0 -6 8 -3 19 3 10 0 22 -6 25 -12 8 -15 94 -5
120 8 22 21 20 55 -8z m109 13 c0 -8 5 -7 15 1 13 11 18 10 30 -6 21 -28 19
-32 -20 -28 -43 3 -56 11 -48 29 6 18 23 20 23 4z m1620 -19 c0 -5 -7 -10 -16
-10 -8 0 -12 5 -9 10 3 6 10 10 16 10 5 0 9 -4 9 -10z m-1515 -18 c-3 -3 -11
0 -18 7 -9 10 -8 11 6 5 10 -3 15 -9 12 -12z m1465 -16 c-13 -13 -35 7 -25 24
5 8 11 8 21 -1 10 -8 12 -15 4 -23z m446 -8 c1 -14 -3 -34 -10 -43 -12 -16
-15 -15 -34 12 -17 24 -27 29 -49 26 -16 -2 -63 -5 -105 -7 -65 -3 -78 -1 -78
12 0 8 3 12 6 9 4 -3 14 -1 24 6 11 8 58 12 130 12 l113 0 3 -27z m-73 -48
c21 -25 21 -30 2 -57 -10 -14 -22 -20 -31 -16 -15 5 -15 7 0 15 21 12 20 28
-1 43 -9 7 -13 17 -9 23 10 17 19 15 39 -8z m174 8 c21 -17 5 -28 -34 -24 -40
5 -53 14 -36 24 19 12 56 12 70 0z m-2847 -38 c0 -4 -11 -19 -25 -34 -14 -15
-25 -31 -25 -36 0 -5 -10 -10 -22 -12 -15 -2 -24 -11 -26 -25 -4 -30 -15 -29
-31 1 -17 31 -7 46 30 46 29 0 41 22 19 35 -20 12 -9 32 23 42 30 9 57 2 57
-17z m-795 -30 c3 -5 -3 -10 -14 -10 -12 0 -21 5 -21 10 0 6 6 10 14 10 8 0
18 -4 21 -10z m1267 -5 c13 -18 8 -25 -17 -25 -19 0 -25 5 -25 20 0 22 28 25
42 5z m-69 -39 c3 -8 0 -17 -8 -19 -15 -7 -25 1 -25 20 0 17 26 17 33 -1z
m-608 -16 c7 -21 -10 -60 -25 -60 -6 0 -10 -7 -10 -16 0 -12 5 -14 18 -9 36
16 75 18 86 4 6 -8 23 -20 39 -26 30 -14 36 -43 12 -63 -27 -22 -50 -8 -55 35
-4 35 -8 40 -32 42 -24 2 -28 -2 -28 -26 0 -16 -6 -33 -12 -39 -16 -12 -119
-12 -135 0 -14 12 -6 38 12 38 8 0 20 13 28 29 13 26 13 30 -4 45 -22 18 -25
52 -6 59 6 3 33 6 59 6 38 1 48 -3 53 -19z m2281 9 c14 -22 -38 -44 -100 -41
-33 2 -31 0 -40 30 -7 21 -5 22 63 22 39 0 73 -5 77 -11z m-2772 -46 c-4 -14
2 -29 16 -43 19 -19 28 -20 78 -14 31 4 62 13 70 20 11 12 17 11 37 -4 14 -9
25 -21 25 -25 0 -15 -30 -19 -45 -7 -13 11 -19 9 -36 -8 -16 -18 -31 -22 -83
-22 -62 0 -64 1 -74 29 -6 16 -8 39 -5 51 5 19 3 21 -16 15 -13 -4 -39 -4 -59
0 -36 7 -36 7 -13 19 13 7 43 12 67 12 39 -1 43 -3 38 -23z m1556 -73 c0 -5
-4 -10 -10 -10 -5 0 -10 5 -10 10 0 6 5 10 10 10 6 0 10 -4 10 -10z m1310 -9
c0 -10 -11 -26 -25 -35 -14 -9 -25 -23 -25 -31 0 -8 -4 -15 -10 -15 -5 0 -10
-13 -10 -30 0 -30 -21 -42 -35 -20 -10 16 5 50 21 50 22 0 17 18 -11 36 -33
21 -18 51 28 57 64 8 67 7 67 -12z m-2635 -50 c7 -12 -12 -24 -25 -16 -11 7
-4 25 10 25 5 0 11 -4 15 -9z m2810 -2 c12 -19 7 -81 -6 -90 -25 -16 -51 -9
-76 17 -30 32 -27 66 7 75 39 11 68 10 75 -2z m-2890 -9 c-3 -5 -14 -10 -23
-9 -14 0 -13 2 3 9 27 11 27 11 20 0z m881 -147 c-10 -10 -19 5 -10 18 6 11 8
11 12 0 2 -7 1 -15 -2 -18z m2294 -3 c0 -16 -32 -20 -51 -7 -10 8 -17 16 -14
19 7 7 65 -3 65 -12z m-1860 -41 c0 -10 -5 -19 -11 -19 -5 0 -8 4 -4 9 3 5 1
12 -5 16 -5 3 -10 1 -10 -6 0 -7 -3 -9 -6 -6 -9 9 16 38 27 31 5 -3 9 -14 9
-25z m-350 -17 c0 -10 61 -33 71 -26 17 10 50 -17 47 -39 -3 -24 -19 -25 -88
-6 -53 14 -62 22 -54 52 6 24 24 38 24 19z m364 -28 c5 -14 4 -15 -9 -4 -17
14 -19 20 -6 20 5 0 12 -7 15 -16z m-767 -70 c-3 -3 -12 -4 -19 -1 -8 3 -5 6
6 6 11 1 17 -2 13 -5z m858 -106 c17 -30 23 -98 10 -118 -11 -18 -19 0 -44 91
-11 41 -23 83 -27 94 -8 25 39 -27 61 -67z m-309 40 c4 -27 -17 -38 -50 -24
-28 11 -28 12 -11 29 21 22 57 19 61 -5z m-526 -58 c0 -6 11 -16 25 -22 28
-13 33 -43 9 -52 -37 -14 -104 -3 -104 17 0 13 50 67 62 67 4 0 8 -5 8 -10z
m164 -26 c18 -7 21 -30 6 -39 -6 -4 -29 -3 -52 0 l-41 7 24 19 c26 20 38 22
63 13z m2532 -31 c-10 -10 -19 5 -10 18 6 11 8 11 12 0 2 -7 1 -15 -2 -18z
m99 -3 c11 -18 -26 -23 -43 -6 -15 15 -14 16 10 16 15 0 30 -5 33 -10z m-3185
-40 c8 -5 11 -12 8 -16 -10 -9 -98 5 -98 17 0 12 70 12 90 -1z m3187 -20 c6
-24 35 -26 53 -5 15 18 40 20 41 3 3 -25 -3 -43 -23 -70 -29 -41 -84 -39 -121
3 -15 17 -27 37 -27 44 0 8 -8 15 -17 18 -10 2 1 8 27 14 63 15 61 15 67 -7z
m-1407 -4 c0 -3 -4 -8 -10 -11 -5 -3 -10 -1 -10 4 0 6 5 11 10 11 6 0 10 -2
10 -4z m-1466 -142 c10 -26 8 -29 -30 -43 -43 -16 -60 -5 -50 33 5 22 12 26
40 26 22 0 36 -6 40 -16z m3036 -14 c0 -5 -4 -10 -10 -10 -5 0 -10 5 -10 10 0
6 5 10 10 10 6 0 10 -4 10 -10z m-2642 -12 c15 -2 15 -6 -7 -42 -24 -41 -34
-41 -55 -2 -22 41 -14 60 23 52 14 -4 32 -7 39 -8z m-111 -34 c-15 -49 -44
-61 -91 -39 -39 19 -52 51 -16 40 12 -4 26 -2 33 3 11 9 63 29 79 31 3 1 1
-15 -5 -35z m2824 -14 c19 -11 26 -35 12 -43 -5 -2 -20 -7 -34 -10 -24 -6 -27
-4 -27 21 0 15 5 30 12 34 14 10 14 10 37 -2z m-3426 -50 c3 -5 1 -10 -4 -10
-6 0 -11 5 -11 10 0 6 2 10 4 10 3 0 8 -4 11 -10z m665 -139 c0 -4 -9 -20 -20
-34 -11 -14 -20 -31 -20 -39 0 -8 -6 -23 -14 -33 -12 -17 -18 -18 -40 -7 -14
6 -26 19 -26 28 0 27 31 83 48 87 31 8 72 7 72 -2z m-399 -191 c27 -15 26 -70
-3 -97 -20 -19 -29 -20 -68 -13 -25 5 -48 9 -52 10 -13 0 -9 65 5 83 6 9 30
18 52 20 22 2 41 4 43 5 2 1 12 -3 23 -8z m240 -6 c16 -14 20 -14 43 2 15 9
29 15 31 12 7 -7 -7 -48 -17 -48 -5 0 -7 -9 -3 -19 3 -11 0 -23 -6 -27 -8 -4
-9 -3 -5 4 9 16 -9 15 -34 0 -17 -11 -24 -8 -49 16 -26 25 -28 31 -19 52 13
28 34 31 59 8z m-131 -55 c0 -52 -17 -74 -34 -44 -6 10 -19 27 -28 37 -34 35
-16 67 32 60 29 -4 30 -7 30 -53z m1183 -16 c-1 -6 14 -10 34 -9 30 1 40 -4
52 -26 15 -25 14 -30 -2 -60 -10 -18 -33 -50 -50 -70 l-32 -37 -55 15 c-30 8
-61 22 -67 31 -9 12 -13 13 -13 3 0 -7 -2 -11 -5 -8 -7 7 16 58 26 58 4 0 14
-6 21 -12 7 -7 22 -13 33 -14 11 0 30 -4 43 -8 13 -5 22 -3 22 3 0 6 -5 11
-11 11 -5 0 -8 4 -5 9 3 5 -2 8 -12 7 -11 -1 -16 6 -15 19 1 19 1 19 -11 3 -7
-10 -15 -16 -17 -14 -2 2 -21 6 -42 9 -46 6 -48 7 -41 34 4 16 13 20 35 18 16
-1 32 -5 36 -9 3 -3 19 -6 35 -6 16 0 31 -6 34 -14 3 -8 12 -12 20 -9 8 3 22
-1 31 -8 14 -12 16 -12 11 1 -2 8 -15 17 -27 20 -13 3 -29 16 -38 30 -8 14
-12 18 -10 9 3 -9 -1 -16 -9 -16 -10 0 -13 6 -8 16 3 9 7 22 7 29 0 7 7 11 16
9 9 -2 15 -8 14 -14z m-1003 -40 c0 -5 -5 -15 -10 -23 -8 -12 -10 -11 -10 8 0
12 5 22 10 22 6 0 10 -3 10 -7z m-210 -22 c0 -5 -7 -14 -15 -21 -18 -15 -42 1
-31 19 8 13 46 15 46 2z m-199 -17 c21 -26 0 -45 -54 -49 -46 -3 -47 -2 -47
25 0 25 4 29 33 33 17 2 37 5 43 5 6 1 17 -5 25 -14z m399 -54 c0 -11 -4 -22
-10 -25 -5 -3 -10 -3 -10 2 0 4 -3 18 -6 31 -5 18 -3 21 10 16 9 -3 16 -14 16
-24z m-108 7 l24 -12 -18 -42 c-18 -41 -18 -41 -55 -31 -21 5 -50 12 -65 15
-41 8 -35 35 15 60 50 25 67 27 99 10z m-218 -55 c3 -5 -1 -9 -9 -9 -8 0 -15
4 -15 9 0 4 4 8 9 8 6 0 12 -4 15 -8z"/>
<path d="M2340 2395 c0 -9 5 -15 11 -13 6 2 11 8 11 13 0 5 -5 11 -11 13 -6 2
-11 -4 -11 -13z"/>
<path d="M2392 2150 c-7 -11 -8 -20 -3 -20 9 0 24 30 18 36 -1 2 -8 -6 -15
-16z"/>
<path d="M2127 461 c-4 -17 -3 -21 5 -13 5 5 8 16 6 23 -3 8 -7 3 -11 -10z"/>
<path d="M1997 433 c-4 -3 -7 -11 -7 -17 0 -6 5 -5 12 2 6 6 9 14 7 17 -3 3
-9 2 -12 -2z"/>
<path d="M2066 403 c-6 -14 -5 -15 5 -6 7 7 10 15 7 18 -3 3 -9 -2 -12 -12z"/>
<path d="M2015 340 c-3 -5 1 -10 9 -10 8 0 18 5 21 10 3 6 -1 10 -9 10 -8 0
-18 -4 -21 -10z"/>
<path d="M2056 334 c-9 -24 -7 -28 9 -14 17 14 20 30 6 30 -5 0 -12 -7 -15
-16z"/>
<path d="M1838 3683 c6 -2 18 -2 25 0 6 3 1 5 -13 5 -14 0 -19 -2 -12 -5z"/>
<path d="M2331 3686 c2 -2 15 -9 29 -15 24 -11 24 -11 6 3 -16 13 -49 24 -35
12z"/>
<path d="M1575 3640 c-2 -4 7 -6 21 -4 35 3 41 12 9 12 -14 0 -27 -4 -30 -8z"/>
<path d="M1640 3598 c-24 -4 -53 -17 -65 -29 l-20 -22 25 7 c14 4 40 11 59 16
32 8 59 26 50 33 -2 2 -24 0 -49 -5z"/>
<path d="M2719 2813 c0 -5 -2 -16 -4 -25 -2 -10 1 -20 6 -24 5 -3 9 9 9 25 0
17 -2 31 -5 31 -3 0 -5 -3 -6 -7z"/>
<path d="M1275 2696 c-11 -6 -20 -11 -21 -11 0 0 2 -27 6 -60 3 -33 9 -53 12
-45 6 16 27 124 24 126 0 1 -10 -3 -21 -10z"/>
<path d="M3618 2435 c-22 -13 -25 -19 -19 -42 6 -21 16 -30 45 -36 56 -14 66
3 32 53 -14 22 -27 40 -29 40 -1 -1 -14 -7 -29 -15z"/>
<path d="M0 1799 c0 -11 4 -17 10 -14 5 3 10 13 10 21 0 8 -4 14 -10 14 -5 0
-10 -9 -10 -21z"/>
</g>
</svg>
